# xmcd
#
# Track frame offsets: 
#        150
#        21888
#        44303
#        66630
#        86703
#        101380
#        124178
#        143313
#        167090
#        183848
#        202475
#        208358
#        227938
#        240070
#
# Disc length: 3411 seconds
#
# Revision: 7
# Processed by: cddbd v1.5.2PL0 Copyright (c) Steve Scherf et al.
# Submitted via: ExactAudioCopyFreeDBPlugin 1.0
#
DISCID=c60d510e
DTITLE=Ottmar Liebert and Luna Negra - Solo Para Ti
DYEAR=1992
DGENRE=New Age
TTITLE0=When I'm with U - Everything I Ever Needed - 4 bok yun
TTITLE1=Reaching Out 2 U (Todos Bajo La Misma Luna) - salsa 4 peace
TTITLE2=Merengue de Alegrias (Candy 4 My Soul) - merengue
TTITLE3=Deep in Your Heart
TTITLE4=Danza Viva (My Heart Grows Wings) - sevillanas
TTITLE5=Promise (Beyond the Mountains) - bulerias 4 jane bay
TTITLE6=Samba Pa Ti (Thru Every Step in Live U Find Freedom from Withi
TTITLE6=n) - dedicated 2 carlos santana
TTITLE7=Lilac Sun - bossa 4 love
TTITLE8=Black Hair in the Wind
TTITLE9=Duende del Amor (Day) - buleriasalsa
TTITLE10=Duende del Amor (Night) - buleriasalsa
TTITLE11=Dawn in a New World
TTITLE12=Whispering Hills - lullaby 4 mandarine
TTITLE13=Arrow without Destination
EXTD=YEAR: 1992
EXTT0=
EXTT1=
EXTT2=
EXTT3=
EXTT4=
EXTT5=
EXTT6=
EXTT7=
EXTT8=
EXTT9=
EXTT10=
EXTT11=
EXTT12=
EXTT13=
PLAYORDER=
